<?xml version="1.0" encoding="UTF-8" standalone="no"?>
<svg
   xmlns="http://www.w3.org/2000/svg"
   version="1.1"
   id="svg7738"
   width="225"
   height="225"
   viewBox="0 0 225 225"
>
  <g id="g7744">
    <path
       id="path13678"
       fill="none"
       stroke="currentColor"
       stroke-width="15"
       stroke-linecap="round"
       stroke-linejoin="round"
       d="m 107.80273,34.884766 c -4.3623,10.346059 -5.02388,16.373052 -5.47851,22.160156 5.999,9.989379 31.242,27.220624 41.63672,31.953125 -10.40986,-4.679248 -35.39373,-21.704657 -41.63672,-31.953125 -1.35762,63.949368 49.40643,85.103968 86.90234,80.677738 0.0297,-14.12524 1.0751,-28.58782 -9.46094,-45.81641 -13.60273,1.921488 -25.35343,0.704069 -35.80468,-2.908203 -1.34899,-14.233134 1.03231,-25.047035 4.92773,-34.691406 C 135.94058,42.022553 122.74283,35.880775 107.80273,34.884766 Z M 46.697266,86.84375 c -3.694579,-0.04887 -7.326556,0.141681 -10.841797,0.556641 -0.02973,14.125239 -1.073141,28.587809 9.46289,45.816409 13.603144,-1.92155 25.3532,-0.70432 35.804688,2.9082 1.34858,14.23216 -1.032487,25.04553 -4.927735,34.68945 12.948085,12.28409 26.143888,18.42782 41.083988,19.42383 4.3623,-10.34606 5.02388,-16.375 5.47851,-22.16211 -7.14203,-9.33684 -28.645142,-25.75681 -41.634763,-31.95117 13.030152,6.1013 34.424773,22.64565 41.634763,31.95117 1.23034,-57.95411 -40.346283,-80.760026 -76.060544,-81.23242 z" />
  </g>
</svg>
